# xmcd
#
# Track frame offsets:
#	150
#	8977
#	19008
#	30656
#	44229
#	59009
#	68744
#	84294
#	96155
#	109771
#	123875
#	143753
#	158831
#	170946
#
# Disc length: 2468 seconds
# Revision: 1
# Processed by: cddbd v1.5.2PL0 Copyright (c) Steve Scherf et al.
# Submitted via: dBpowerAMP V12.0
#
DISCID=bd09a20e
DTITLE=Various Artist - Legends of the Blues
DYEAR=2012
DGENRE=Blues
TTITLE0=Big Joe Williams - Bottle Up And Go
TTITLE1=Mississippi Fred McDowell - Jesus Is On The Main Line
TTITLE2=Robert Nighthawk - Kansas City
TTITLE3=Bukka White - Hot Springs Arkansas
TTITLE4=Robert Wilkins - When I Lay My Burden Down
TTITLE5=Mississippi Fred McDowell - This Little Light Of Mine
TTITLE6=Bukka White - Mama Don' Low
TTITLE7=Cow Cow Davenort - Cow Cow Blues
TTITLE8=Big Joe Williams - Rock Me Mama
TTITLE9=Bukka White - Glory Bound Train
TTITLE10=Robert Wilkins - Old Time Religion
TTITLE11=Mississippi Fred and Annie Mae McDowell - Amazing Grace
TTITLE12=Blind Willie McTell - Pal Of Mine
TTITLE13=Buddy Moss - Red River
EXTD=
EXTT0=
EXTT1=
EXTT2=
EXTT3=
EXTT4=
EXTT5=
EXTT6=
EXTT7=
EXTT8=
EXTT9=
EXTT10=
EXTT11=
EXTT12=
EXTT13=
PLAYORDER=
